<?xml version="1.0" encoding="UTF-8" standalone="no" ?>

<svg xmlns="http://www.w3.org/2000/svg" xmlns:xlink="http://www.w3.org/1999/xlink" version="1.1" width="200" height="70" viewBox="1900 400 1200 1200" xml:space="preserve">
<desc>Created with Fabric.js 5.2.4</desc>
<defs>
</defs>
<g transform="matrix(1 0 0 1 2500 1000)" id="731ac66c-f33a-44d3-8089-d0536d317723"  >
<rect style="stroke: none; stroke-width: 1; stroke-dasharray: none; stroke-linecap: butt; stroke-dashoffset: 0; stroke-linejoin: miter; stroke-miterlimit: 4; fill: rgb(255,255,255); fill-rule: nonzero; opacity: 1; visibility: hidden;" vector-effect="non-scaling-stroke"  x="-2500" y="-1000" rx="0" ry="0" width="4500" height="2000" />
</g>
<g transform="matrix(0 0 0 0 0 0)" id="43e35a7b-4627-4390-a7a2-6d1bfff4298b"  >
</g>
<g transform="matrix(6.94 0 0 8.92 2807.6 1162.27)"  >
<path style="stroke: none; stroke-width: 1; stroke-dasharray: none; stroke-linecap: butt; stroke-dashoffset: 0; stroke-linejoin: miter; stroke-miterlimit: 4; fill: rgb(255,255,255); fill-rule: nonzero; opacity: 1;" vector-effect="non-scaling-stroke"  transform=" translate(-112.6, -35.35)" d="M 11.35 17.75 Q 16.9 17.75 21.08 19.88 Q 25.25 22 27.53 25.97 Q 29.8 29.95 29.8 35.25 Q 29.8 40.55 27.53 44.45 Q 25.25 48.35 21.08 50.42 Q 16.9 52.5 11.35 52.5 L 0 52.5 L 0 17.75 L 11.35 17.75 M 11.35 47.85 Q 17.45 47.85 20.7 44.55 Q 23.95 41.25 23.95 35.25 Q 23.95 29.2 20.7 25.8 Q 17.45 22.4 11.35 22.4 L 5.7 22.4 L 5.7 47.85 L 11.35 47.85 Z M 33.55 38.6 Q 33.55 34.45 35.28 31.25 Q 37 28.05 39.98 26.27 Q 42.95 24.5 46.55 24.5 Q 49.8 24.5 52.23 25.77 Q 54.65 27.05 56.1 28.95 L 56.1 24.95 L 61.85 24.95 L 61.85 52.5 L 56.1 52.5 L 56.1 48.4 Q 54.65 50.35 52.15 51.65 Q 49.65 52.95 46.45 52.95 Q 42.9 52.95 39.95 51.13 Q 37 49.3 35.28 46.02 Q 33.55 42.75 33.55 38.6 M 56.1 38.7 Q 56.1 35.85 54.93 33.75 Q 53.75 31.65 51.85 30.55 Q 49.95 29.45 47.75 29.45 Q 45.55 29.45 43.65 30.52 Q 41.75 31.6 40.58 33.67 Q 39.4 35.75 39.4 38.6 Q 39.4 41.45 40.58 43.6 Q 41.75 45.75 43.68 46.88 Q 45.6 48 47.75 48 Q 49.95 48 51.85 46.9 Q 53.75 45.8 54.93 43.67 Q 56.1 41.55 56.1 38.7 Z M 76 29.6 L 76 44.85 Q 76 46.4 76.72 47.08 Q 77.45 47.75 79.2 47.75 L 82.7 47.75 L 82.7 52.5 L 78.2 52.5 Q 74.35 52.5 72.3 50.7 Q 70.25 48.9 70.25 44.85 L 70.25 29.6 L 67 29.6 L 67 24.95 L 70.25 24.95 L 70.25 18.1 L 76 18.1 L 76 24.95 L 82.7 24.95 L 82.7 29.6 L 76 29.6 Z M 86.05 38.6 Q 86.05 34.45 87.77 31.25 Q 89.5 28.05 92.47 26.27 Q 95.45 24.5 99.05 24.5 Q 102.3 24.5 104.72 25.77 Q 107.15 27.05 108.6 28.95 L 108.6 24.95 L 114.35 24.95 L 114.35 52.5 L 108.6 52.5 L 108.6 48.4 Q 107.15 50.35 104.65 51.65 Q 102.15 52.95 98.95 52.95 Q 95.4 52.95 92.45 51.13 Q 89.5 49.3 87.77 46.02 Q 86.05 42.75 86.05 38.6 M 108.6 38.7 Q 108.6 35.85 107.42 33.75 Q 106.25 31.65 104.35 30.55 Q 102.45 29.45 100.25 29.45 Q 98.05 29.45 96.15 30.52 Q 94.25 31.6 93.07 33.67 Q 91.9 35.75 91.9 38.6 Q 91.9 41.45 93.07 43.6 Q 94.25 45.75 96.17 46.88 Q 98.1 48 100.25 48 Q 102.45 48 104.35 46.9 Q 106.25 45.8 107.42 43.67 Q 108.6 41.55 108.6 38.7 Z M 135.75 24.5 Q 139 24.5 141.57 25.85 Q 144.15 27.2 145.6 29.85 Q 147.05 32.5 147.05 36.25 L 147.05 52.5 L 141.4 52.5 L 141.4 37.1 Q 141.4 33.4 139.55 31.42 Q 137.7 29.45 134.5 29.45 Q 131.3 29.45 129.42 31.42 Q 127.55 33.4 127.55 37.1 L 127.55 52.5 L 121.85 52.5 L 121.85 24.95 L 127.55 24.95 L 127.55 28.1 Q 128.95 26.4 131.13 25.45 Q 133.3 24.5 135.75 24.5 Z M 179.55 38.05 Q 179.55 39.6 179.35 40.85 L 158.3 40.85 Q 158.55 44.15 160.75 46.15 Q 162.95 48.15 166.15 48.15 Q 170.75 48.15 172.65 44.3 L 178.8 44.3 Q 177.55 48.1 174.28 50.52 Q 171 52.95 166.15 52.95 Q 162.2 52.95 159.08 51.17 Q 155.95 49.4 154.18 46.17 Q 152.4 42.95 152.4 38.7 Q 152.4 34.45 154.13 31.22 Q 155.85 28 158.98 26.25 Q 162.1 24.5 166.15 24.5 Q 170.05 24.5 173.1 26.2 Q 176.15 27.9 177.85 30.97 Q 179.55 34.05 179.55 38.05 M 173.6 36.25 Q 173.55 33.1 171.35 31.2 Q 169.15 29.3 165.9 29.3 Q 162.95 29.3 160.85 31.17 Q 158.75 33.05 158.35 36.25 L 173.6 36.25 Z M 195.15 52.95 Q 191.9 52.95 189.33 51.77 Q 186.75 50.6 185.25 48.58 Q 183.75 46.55 183.65 44.05 L 189.55 44.05 Q 189.7 45.8 191.22 46.98 Q 192.75 48.15 195.05 48.15 Q 197.45 48.15 198.78 47.23 Q 200.1 46.3 200.1 44.85 Q 200.1 43.3 198.63 42.55 Q 197.15 41.8 193.95 40.9 Q 190.85 40.05 188.9 39.25 Q 186.95 38.45 185.53 36.8 Q 184.1 35.15 184.1 32.45 Q 184.1 30.25 185.4 28.42 Q 186.7 26.6 189.13 25.55 Q 191.55 24.5 194.7 24.5 Q 199.4 24.5 202.28 26.88 Q 205.15 29.25 205.35 33.35 L 199.65 33.35 Q 199.5 31.5 198.15 30.4 Q 196.8 29.3 194.5 29.3 Q 192.25 29.3 191.05 30.15 Q 189.85 31 189.85 32.4 Q 189.85 33.5 190.65 34.25 Q 191.45 35 192.6 35.42 Q 193.75 35.85 196 36.5 Q 199 37.3 200.93 38.13 Q 202.85 38.95 204.25 40.55 Q 205.65 42.15 205.7 44.8 Q 205.7 47.15 204.4 49 Q 203.1 50.85 200.73 51.9 Q 198.35 52.95 195.15 52.95 Z M 218.5 29.6 L 218.5 44.85 Q 218.5 46.4 219.23 47.08 Q 219.95 47.75 221.7 47.75 L 225.2 47.75 L 225.2 52.5 L 220.7 52.5 Q 216.85 52.5 214.8 50.7 Q 212.75 48.9 212.75 44.85 L 212.75 29.6 L 209.5 29.6 L 209.5 24.95 L 212.75 24.95 L 212.75 18.1 L 218.5 18.1 L 218.5 24.95 L 225.2 24.95 L 225.2 29.6 L 218.5 29.6 Z" stroke-linecap="round" />
</g>
<g transform="matrix(9.19 0 0 8.92 1419.81 972.07)"  >
<rect style="stroke: none; stroke-width: 1; stroke-dasharray: none; stroke-linecap: butt; stroke-dashoffset: 0; stroke-linejoin: miter; stroke-miterlimit: 4; fill: rgb(255,255,255); fill-rule: nonzero; opacity: 0.2;" vector-effect="non-scaling-stroke"  x="-37.415" y="-37.415" rx="37.4161" ry="37.4161" width="74.83" height="74.83" />
</g>
<g transform="matrix(9.19 0 0 8.92 1604.13 1139.22)"  >
<rect style="stroke: none; stroke-width: 1; stroke-dasharray: none; stroke-linecap: butt; stroke-dashoffset: 0; stroke-linejoin: miter; stroke-miterlimit: 4; fill: rgb(255,255,255); fill-rule: nonzero; opacity: 1;" vector-effect="non-scaling-stroke"  x="-24.945" y="-24.945" rx="24.9441" ry="24.9441" width="49.89" height="49.89" />
</g>
</svg>