<svg width="224" height="82" viewBox="0 0 224 82" fill="none" xmlns="http://www.w3.org/2000/svg">
  <!-- Original decorative elements -->
  <rect opacity="0.2" width="74.8323" height="74.8323" rx="37.4161" fill="#4f46e5"/>
  <rect x="32.7383" y="31.1797" width="49.8882" height="49.8882" rx="24.9441" fill="#4f46e5"/>
  
  <!-- Datanest text (scaled and positioned) -->
  <g transform="translate(89, 30) scale(0.68)">
    <path d="M0 45.26L0 9.47L12.33 9.47Q16.50 9.47 18.70 9.99Q21.78 10.69 23.95 12.55Q26.78 14.94 28.19 18.66Q29.59 22.39 29.59 27.17Q29.59 31.25 28.64 34.40Q27.69 37.55 26.20 39.61Q24.71 41.67 22.94 42.86Q21.17 44.04 18.66 44.65Q16.16 45.26 12.92 45.26L0 45.26M4.74 41.04L12.38 41.04Q15.92 41.04 17.93 40.38Q19.95 39.72 21.14 38.53Q22.83 36.84 23.77 34.00Q24.71 31.15 24.71 27.10Q24.71 21.48 22.86 18.47Q21.02 15.45 18.38 14.43Q16.48 13.70 12.26 13.70L4.74 13.70L4.74 41.04ZM52.47 42.07Q50.02 44.14 47.77 45.00Q45.51 45.85 42.92 45.85Q38.65 45.85 36.35 43.76Q34.06 41.67 34.06 38.43Q34.06 36.52 34.92 34.95Q35.79 33.37 37.19 32.42Q38.60 31.47 40.36 30.98Q41.65 30.64 44.26 30.32Q49.58 29.69 52.10 28.81Q52.12 27.91 52.12 27.66Q52.12 24.98 50.88 23.88Q49.19 22.39 45.87 22.39Q42.77 22.39 41.30 23.47Q39.82 24.56 39.11 27.32L34.81 26.73Q35.40 23.97 36.74 22.28Q38.09 20.58 40.63 19.67Q43.16 18.75 46.51 18.75Q49.83 18.75 51.90 19.53Q53.98 20.31 54.96 21.50Q55.93 22.68 56.32 24.49Q56.54 25.61 56.54 28.54L56.54 34.40Q56.54 40.53 56.82 42.15Q57.10 43.77 57.93 45.26L53.34 45.26Q52.66 43.90 52.47 42.07M52.10 32.25Q49.71 33.23 44.92 33.91Q42.21 34.30 41.09 34.79Q39.97 35.28 39.36 36.22Q38.75 37.16 38.75 38.31Q38.75 40.06 40.08 41.24Q41.41 42.41 43.97 42.41Q46.51 42.41 48.49 41.30Q50.46 40.19 51.39 38.26Q52.10 36.77 52.10 33.86L52.10 32.25ZM72.95 41.33L73.58 45.21Q71.73 45.61 70.26 45.61Q67.87 45.61 66.55 44.85Q65.23 44.09 64.70 42.86Q64.16 41.63 64.16 37.67L64.16 22.75L60.94 22.75L60.94 19.34L64.16 19.34L64.16 12.92L68.53 10.28L68.53 19.34L72.95 19.34L72.95 22.75L68.53 22.75L68.53 37.92Q68.53 39.79 68.76 40.33Q68.99 40.87 69.52 41.19Q70.04 41.50 71.02 41.50Q71.75 41.50 72.95 41.33ZM94.17 42.07Q91.72 44.14 89.47 45.00Q87.21 45.85 84.62 45.85Q80.35 45.85 78.05 43.76Q75.76 41.67 75.76 38.43Q75.76 36.52 76.62 34.95Q77.49 33.37 78.89 32.42Q80.30 31.47 82.06 30.98Q83.35 30.64 85.96 30.32Q91.28 29.69 93.80 28.81Q93.82 27.91 93.82 27.66Q93.82 24.98 92.58 23.88Q90.89 22.39 87.57 22.39Q84.47 22.39 83.00 23.47Q81.52 24.56 80.81 27.32L76.51 26.73Q77.10 23.97 78.44 22.28Q79.79 20.58 82.32 19.67Q84.86 18.75 88.21 18.75Q91.53 18.75 93.60 19.53Q95.68 20.31 96.66 21.50Q97.63 22.68 98.02 24.49Q98.24 25.61 98.24 28.54L98.24 34.40Q98.24 40.53 98.52 42.15Q98.80 43.77 99.63 45.26L95.04 45.26Q94.36 43.90 94.17 42.07M93.80 32.25Q91.41 33.23 86.62 33.91Q83.91 34.30 82.79 34.79Q81.67 35.28 81.05 36.22Q80.44 37.16 80.44 38.31Q80.44 40.06 81.77 41.24Q83.11 42.41 85.67 42.41Q88.21 42.41 90.19 41.30Q92.16 40.19 93.09 38.26Q93.80 36.77 93.80 33.86L93.80 32.25ZM105.05 45.26L105.05 19.34L109.01 19.34L109.01 23.02Q111.87 18.75 117.26 18.75Q119.60 18.75 121.57 19.59Q123.54 20.43 124.51 21.80Q125.49 23.17 125.88 25.05Q126.12 26.27 126.12 29.32L126.12 45.26L121.73 45.26L121.73 29.49Q121.73 26.81 121.22 25.48Q120.70 24.15 119.40 23.35Q118.09 22.56 116.33 22.56Q113.53 22.56 111.49 24.34Q109.45 26.12 109.45 31.10L109.45 45.26L105.05 45.26ZM150.61 36.91L155.15 37.48Q154.08 41.46 151.17 43.65Q148.27 45.85 143.75 45.85Q138.06 45.85 134.73 42.35Q131.40 38.84 131.40 32.52Q131.40 25.98 134.77 22.36Q138.13 18.75 143.51 18.75Q148.71 18.75 152.00 22.29Q155.30 25.83 155.30 32.25Q155.30 32.64 155.27 33.42L135.94 33.42Q136.18 37.70 138.35 39.97Q140.53 42.24 143.77 42.24Q146.19 42.24 147.90 40.97Q149.61 39.70 150.61 36.91M136.18 29.81L150.66 29.81Q150.37 26.54 149.00 24.90Q146.90 22.36 143.55 22.36Q140.53 22.36 138.46 24.39Q136.40 26.42 136.18 29.81ZM158.91 37.52L163.26 36.84Q163.62 39.45 165.30 40.84Q166.97 42.24 169.97 42.24Q173.00 42.24 174.46 41.00Q175.93 39.77 175.93 38.11Q175.93 36.62 174.63 35.77Q173.73 35.18 170.14 34.28Q165.31 33.06 163.44 32.17Q161.57 31.27 160.61 29.70Q159.64 28.13 159.64 26.22Q159.64 24.49 160.44 23.01Q161.23 21.53 162.60 20.56Q163.62 19.80 165.39 19.27Q167.16 18.75 169.19 18.75Q172.24 18.75 174.55 19.63Q176.86 20.51 177.95 22.01Q179.05 23.51 179.47 26.03L175.17 26.61Q174.88 24.61 173.47 23.49Q172.07 22.36 169.51 22.36Q166.48 22.36 165.19 23.36Q163.89 24.37 163.89 25.71Q163.89 26.56 164.43 27.25Q164.97 27.95 166.11 28.42Q166.77 28.66 170.00 29.54Q174.66 30.79 176.50 31.58Q178.34 32.37 179.39 33.89Q180.44 35.40 180.44 37.65Q180.44 39.84 179.16 41.78Q177.88 43.73 175.46 44.79Q173.05 45.85 170.00 45.85Q164.94 45.85 162.29 43.75Q159.64 41.65 158.91 37.52ZM195.26 41.33L195.90 45.21Q194.04 45.61 192.58 45.61Q190.19 45.61 188.87 44.85Q187.55 44.09 187.01 42.86Q186.47 41.63 186.47 37.67L186.47 22.75L183.25 22.75L183.25 19.34L186.47 19.34L186.47 12.92L190.84 10.28L190.84 19.34L195.26 19.34L195.26 22.75L190.84 22.75L190.84 37.92Q190.84 39.79 191.08 40.33Q191.31 40.87 191.83 41.19Q192.36 41.50 193.33 41.50Q194.07 41.50 195.26 41.33Z" fill="#4f46e5"/>
  </g>
</svg>